<?xml version="1.0" encoding="iso-8859-1"?>
<!-- Generator: Adobe Illustrator 19.0.0, SVG Export Plug-In . SVG Version: 6.00 Build 0) -->
<svg version="1.1" id="Layer_1" xmlns="http://www.w3.org/2000/svg" width="10px" height="10px" xmlns:xlink="http://www.w3.org/1999/xlink" x="0px" y="0px" viewBox="0 0 210.415 210.415" style="enable-background:new 0 0 0 0;" xml:space="preserve">
	<g>
		<g>
			<g>
				<path d="M3.897,81.828c2.152,0,3.897-1.745,3.897-3.897V7.793h70.138c2.152,0,3.897-1.745,3.897-3.897S80.083,0,77.931,0H3.897
				C1.745,0,0,1.745,0,3.897v74.034C0,80.083,1.745,81.828,3.897,81.828z" />
				<path d="M206.517,0h-74.034c-2.152,0-3.897,1.745-3.897,3.897c0,2.152,1.745,3.897,3.897,3.897h70.138v70.138
				c0,2.152,1.745,3.897,3.897,3.897c2.152,0,3.897-1.745,3.897-3.897V3.897C210.414,1.745,208.669,0,206.517,0z" />
				<path d="M77.931,202.621H7.793v-70.138c0-2.152-1.745-3.897-3.897-3.897S0,130.331,0,132.483v74.034
				c0,2.152,1.745,3.897,3.897,3.897h74.034c2.152,0,3.897-1.745,3.897-3.897C81.828,204.365,80.083,202.621,77.931,202.621z" />
				<path d="M206.517,128.586c-2.152,0-3.897,1.745-3.897,3.897v70.138h-70.138c-2.152,0-3.897,1.745-3.897,3.897
				c0,2.152,1.745,3.897,3.897,3.897h74.034c2.152,0,3.897-1.745,3.897-3.897v-74.034
				C210.414,130.331,208.669,128.586,206.517,128.586z" />
				<polygon points="148.069,105.207 109.103,105.207 109.103,66.241 101.31,66.241 101.31,105.207 62.345,105.207 62.345,113 
				101.31,113 101.31,151.966 109.103,151.966 109.103,113 148.069,113 			" />
			</g>
		</g>
	</g>
	<g>
	</g>
	<g>
	</g>
	<g>
	</g>
	<g>
	</g>
	<g>
	</g>
	<g>
	</g>
	<g>
	</g>
	<g>
	</g>
	<g>
	</g>
	<g>
	</g>
	<g>
	</g>
	<g>
	</g>
	<g>
	</g>
	<g>
	</g>
	<g>
	</g>
</svg>
